<svg height="512pt" viewBox="-43 0 512 512.00023" width="512pt" xmlns="http://www.w3.org/2000/svg" xmlns:xlink="http://www.w3.org/1999/xlink"><linearGradient id="a" gradientTransform="matrix(.390112 0 0 -.390112 -42.71717 519.82157)" gradientUnits="userSpaceOnUse" x1="158.9173" x2="986.6039" y1="183.7654" y2="1011.4742"><stop offset="0" stop-color="#f87e33"/><stop offset="1" stop-color="#fc6363"/></linearGradient><path d="m78.105469 147.554688v-17.355469h17.355469v17.355469zm-17.355469 0v-34.714844h-17.359375v34.714844zm-34.714844-52.070313h-17.355468v52.070313h17.355468zm286.382813 52.070313v-52.070313h-17.355469v52.070313zm-69.425781 0v-17.355469h-17.355469v17.355469zm34.714843 0v-34.714844h-17.355469v34.714844zm-86.785156 121.496093c0 14.378907-11.65625 26.035157-26.035156 26.035157h-17.355469c-14.378906 0-26.035156-11.65625-26.035156-26.035157 0-14.378906 11.65625-26.035156 26.035156-26.035156h17.355469c14.378906 0 26.035156 11.65625 26.035156 26.035156zm-17.355469 0c0-4.792969-3.886718-8.679687-8.679687-8.679687h-17.355469c-4.792969 0-8.679688 3.886718-8.679688 8.679687s3.886719 8.679688 8.679688 8.679688h17.355469c4.792969 0 8.679687-3.886719 8.679687-8.679688zm-173.566406-95.460937c0-4.792969 3.886719-8.679688 8.679688-8.679688h295.0625c4.792968 0 8.675781 3.886719 8.675781 8.679688v229.382812l40.382812-46.652344-19.691406-17.035156c-3.625-3.136718-4.019531-8.617187-.882813-12.242187 1.351563-1.5625 3.21875-2.59375 5.265626-2.902344l79.128906-11.878906c2.5-.390625 5.042968.351562 6.941406 2.019531 1.917969 1.660156 3.015625 4.070312 3.003906 6.605469l-.363281 80.003906c-.023437 4.792969-3.925781 8.664063-8.71875 8.640625-2.070313-.007812-4.070313-.757812-5.636719-2.113281l-19.691406-17.035157-73.816406 85.324219c-1.503906 1.738281-3.636719 2.808594-5.929688 2.976563-.214844 0-.414062 0-.632812 0-2.082032 0-4.097656-.753906-5.675782-2.117188l-45.941406-39.746094-62.484375 72.195313c-1.503906 1.742187-3.640625 2.816406-5.9375 2.984375h-.625c-2.082031 0-4.097656-.753906-5.675781-2.117188l-26.257812-22.710937c-3.617188-3.140625-4.003907-8.617187-.867188-12.238281l35.511719-40.996094h-185.144531c-4.792969 0-8.679688-3.882812-8.679688-8.675781zm269.738281 225.636718-13.121093-11.351562-79.492188 91.886719 13.140625 11.347656 62.480469-72.183594zm88.980469-60.75 11.96875 10.414063 13.128906 11.359375 25.105469 21.695312.289063-51.019531zm-60.957031 107.957032 13.140625 11.351562 68.125-78.753906-13.125-11.359375-51.097656 59.0625zm-1.734375-24.480469-13.15625-11.359375-11.351563 13.128906 13.121094 11.351563 2.273437-2.601563zm-278.671875-74.796875h277.707031v-164.886719h-277.707031zm0 34.710938h221.515625l10.308594-11.90625c1.503906-1.738282 3.636718-2.808594 5.929687-2.976563 2.296875-.15625 4.5625.59375 6.308594 2.09375l14.789062 12.789063h18.855469v-17.355469h-277.707031zm0 34.714843h191.488281l15.011719-17.355469h-206.5zm175.304687-404.410156c26.835938 20.132813 32.273438 58.210937 12.140625 85.050781-20.128906 26.835938-58.207031 32.273438-85.046875 12.140625-26.839844-20.132812-32.277344-58.207031-12.144531-85.046875 9.667969-12.886718 24.058594-21.410156 40.007813-23.6875 15.949218-2.324218 32.167968 1.835938 45.03125 11.542969zm-42.578125 5.640625c-23.722656 3.382812-40.214843 25.359375-36.828125 49.082031 3.382813 23.726563 25.355469 40.214844 49.082032 36.832031 23.722656-3.382812 40.214843-25.359374 36.828124-49.082031-1.625-11.394531-7.710937-21.679687-16.917968-28.585937-9.191406-6.9375-20.777344-9.90625-32.171875-8.246094zm127.625 222.234375v49.335937c-.003906 3.675782-2.316406 6.949219-5.78125 8.175782-12.34375 4.386718-22.054687 14.101562-26.433593 26.453125-1.226563 3.46875-4.511719 5.789062-8.191407 5.785156h-162.207031c-3.679688.003906-6.957031-2.316406-8.183594-5.785156-4.367187-12.355469-14.082031-22.074219-26.433594-26.445313-3.46875-1.222656-5.789062-4.503906-5.789062-8.183594v-49.351562c-.003906-3.683594 2.320312-6.96875 5.796875-8.191406 12.34375-4.378906 22.058594-14.085938 26.441406-26.425782 1.230469-3.480468 4.523438-5.800781 8.210938-5.789062h162.164062c3.683594-.003906 6.96875 2.320312 8.191407 5.796875 2.835937 8.070313 8.007812 15.113281 14.859374 20.238281 3.511719 2.648438 7.410157 4.738282 11.558594 6.203125 3.472656 1.222657 5.796875 4.503907 5.796875 8.183594zm-17.355469 5.796875c-3.671874-1.75-7.160156-3.859375-10.414062-6.300781-7.898438-5.902344-14.230469-13.648438-18.441406-22.5625h-150.570313c-6.015625 12.648437-16.207031 22.835937-28.855469 28.847656v37.757813c12.652344 6.011718 22.84375 16.203124 28.855469 28.855468h150.570313c6.015625-12.648437 16.207031-22.835937 28.855468-28.855468zm-105.183593-176.453125c-1.511719-.1875-2.945313-.765625-4.164063-1.675781-1.226562-.914063-2.183594-2.136719-2.777344-3.542969-1.882812-4.40625-6.984374-6.457031-11.394531-4.570313-4.410156 1.882813-6.457031 6.984376-4.574219 11.394532 3.660157 8.546875 11.597657 14.5 20.828126 15.621094.347656 0 .695312.058593 1.039062.058593 4.792969.003907 8.683594-3.878906 8.6875-8.667969.003906-4.402343-3.285156-8.109374-7.652344-8.628906zm2.082031-17.246094c1.511719.183594 2.945312.761719 4.160156 1.675781 1.21875.917969 2.183594 2.136719 2.792969 3.539063 1.714844 4.476563 6.730469 6.714844 11.207031 5 4.476563-1.714844 6.714844-6.730469 5-11.207031-.082031-.210938-.167968-.417969-.265625-.621094-3.652343-8.554688-11.59375-14.507812-20.828125-15.621094-4.742187-.703125-9.15625 2.570313-9.859375 7.308594-.703125 4.742188 2.570313 9.15625 7.3125 9.859375.160157.023437.320313.042969.480469.058594zm0 0" fill="url(#a)"/></svg>