<svg height="512pt" viewBox="0 0 512 512.00043" width="512pt" xmlns="http://www.w3.org/2000/svg" xmlns:xlink="http://www.w3.org/1999/xlink"><linearGradient id="a" gradientTransform="matrix(.411049 0 0 -.411049 -.006773 511.143113)" gradientUnits="userSpaceOnUse" x1="263.1022" x2="1175.3083" y1="262.6753" y2="1174.8816"><stop offset="0" stop-color="#f87e33"/><stop offset="1" stop-color="#fc6363"/></linearGradient><path d="m511.507812 57.988281c-1.09375-3.28125-3.945312-5.660156-7.367187-6.152343l-38.46875-5.488282-5.488281-38.476562c-.703125-5-5.328125-8.484375-10.328125-7.7812502-1.976563.2773442-3.808594 1.1953122-5.214844 2.6132812l-32.316406 32.324219-32.316407 32.316406c-2.039062 2.035156-3 4.910156-2.597656 7.761719l5.828125 40.738281-22.960937 23.003906c-74.980469-68.25-191.09375-62.792968-259.34375 12.1875-68.25 74.980469-62.792969 191.09375 12.1875 259.34375 74.980468 68.25 191.089844 62.792969 259.339844-12.1875 63.492187-69.753906 63.796874-176.273437.699218-246.386718l22.996094-23.003907 40.730469 5.824219c.429687.0625.863281.09375 1.296875.089844 2.425781 0 4.75-.964844 6.464844-2.679688l32.324218-32.351562 32.351563-32.332032c2.441406-2.453124 3.289062-6.078124 2.183593-9.363281zm-55.21875 5.488281 27.15625 3.886719-16.183593 16.15625-33.925781-4.867187-4.855469-33.921875 16.175781-16.167969 3.878906 27.148438c.574219 4.019531 3.734375 7.179687 7.753906 7.753906zm-383.136718 210.777344c-.136719-90.746094 73.316406-164.417968 164.0625-164.554687 40.640625-.0625 79.859375 14.941406 110.085937 42.109375l-12.921875 12.890625c-60.484375-53.453125-152.851562-47.75-206.304687 12.734375-53.457031 60.488281-47.753907 152.855468 12.734375 206.308594 24.398437 21.558593 55.296875 34.355468 87.792968 36.359374v18.289063c-87.121093-4.882813-155.304687-76.878906-155.449218-164.136719zm219.457031 0c-.027344 26.753906-19.34375 49.582032-45.71875 54.042969v-18.765625c16.097656-4.15625 27.367187-18.648438 27.429687-35.277344-.03125-6.507812-1.824218-12.886718-5.183593-18.460937l13.277343-13.277344c6.628907 9.253906 10.195313 20.355469 10.195313 31.738281zm-36.574219 0c-.019531 6.503906-3.507812 12.507813-9.144531 15.746094v-11.960938l8.457031-8.457031c.433594 1.519531.664063 3.09375.6875 4.671875zm-24.746094-6.464844c-.851562.851563-1.523437 1.859376-1.984374 2.972657-.457032 1.109375-.699219 2.292969-.703126 3.492187v15.746094c-8.726562-5.023438-11.726562-16.171875-6.703124-24.898438 3.261718-5.664062 9.308593-9.152343 15.847656-9.132812 1.582031.019531 3.152344.25 4.671875.683594zm24.917969-24.925781c-5.574219-3.355469-11.953125-5.148437-18.460937-5.183593-20.160156-.027344-36.523438 16.296874-36.546875 36.457031-.023438 16.671875 11.257812 31.238281 27.402343 35.394531v18.753906c-29.894531-4.953125-50.109374-33.203125-45.152343-63.097656 4.957031-29.890625 33.207031-50.109375 63.097656-45.152344 8.273437 1.371094 16.117187 4.621094 22.9375 9.496094zm26.34375-26.316406c-31.871093-24.769531-77.789062-19.011719-102.558593 12.859375-24.769532 31.875-19.011719 77.789062 12.859374 102.558594 10.371094 8.058594 22.71875 13.175781 35.75 14.8125v18.460937c-50.253906-4.992187-86.945312-49.777343-81.953124-100.03125 4.992187-50.253906 49.777343-86.945312 100.03125-81.953125 17.9375 1.78125 34.945312 8.824219 48.894531 20.242188zm-35.660156 130.230469c39.992187-4.949219 68.40625-41.382813 63.457031-81.378906-1.621094-13.101563-6.765625-25.515626-14.886718-35.921876l13.042968-13.050781c31.972656 39.039063 26.246094 96.605469-12.792968 128.578125-13.925782 11.40625-30.910157 18.445313-48.820313 20.234375zm61.640625-156.226563c-46.226562-39.128906-115.417969-33.375-154.542969 12.851563-39.128906 46.226562-33.375 115.414062 12.851563 154.542968 17.421875 14.746094 39.015625 23.691407 61.761718 25.582032v18.285156c-70.488281-4.917969-123.644531-66.050781-118.722656-136.542969 4.921875-70.488281 66.054688-123.640625 136.542969-118.722656 27.722656 1.9375 54.058594 12.84375 75.027344 31.074219zm-61.640625 192.976563c60.296875-4.953125 105.164063-57.847656 100.210937-118.144532-1.871093-22.804687-10.839843-44.453124-25.640624-61.902343l12.917968-12.929688c46.3125 53.199219 40.726563 133.871094-12.472656 180.183594-20.960938 18.246094-47.296875 29.15625-75.015625 31.082031zm155.449219-109.273438c-.144532 87.257813-68.332032 159.253906-155.449219 164.136719v-18.289063c80.445313-4.835937 141.734375-73.96875 136.898437-154.414062-1.960937-32.609375-14.804687-63.617188-36.480468-88.058594l12.96875-12.929687c27.074218 30.066406 42.058594 69.09375 42.0625 109.554687zm32.605468-158.410156-33.941406-4.847656-4.847656-33.941406 16.160156-16.15625 3.882813 27.148437c.578125 4.019531 3.734375 7.175781 7.753906 7.753906l27.167969 3.875zm-188.054687-42.757812h-18.289063v-36.578126h18.289063zm-246.890625 192.023437h36.578125v18.289063h-36.578125zm228.601562 210.316406h18.289063v36.574219h-18.289063zm210.3125-210.316406h36.578126v18.289063h-36.578126zm0 0" fill="url(#a)"/></svg>