<svg height="512pt" viewBox="0 -25 512.00006 512" width="512pt" xmlns="http://www.w3.org/2000/svg" xmlns:xlink="http://www.w3.org/1999/xlink"><linearGradient id="a" gradientTransform="matrix(.431795 0 0 -.431795 -.000166 485.448471)" gradientUnits="userSpaceOnUse" x1="185.131" x2="1000.6315" y1="-52.9186" y2="762.6041"><stop offset="0" stop-color="#f87e33"/><stop offset="1" stop-color="#fc6363"/></linearGradient><path d="m256.007812 374.847656c47.746094 0 86.453126-38.707031 86.453126-86.449218 0-47.746094-38.707032-86.453126-86.453126-86.453126-47.742187 0-86.449218 38.707032-86.449218 86.453126.058594 47.71875 38.730468 86.390624 86.449218 86.449218zm66.472657-96.054687c1.023437 6.359375 1.023437 12.847656 0 19.210937h-18.867188c.40625-6.398437.40625-12.816406 0-19.210937zm-5.8125-19.210938h-15.511719c-1.578125-8.140625-3.828125-16.132812-6.722656-23.902343l-1.203125-3.207032c10.105469 6.765625 18.203125 16.128906 23.4375 27.109375zm-22.1875 81.53125c2.878906-7.769531 5.113281-15.761719 6.675781-23.898437h15.503906c-5.222656 10.96875-13.300781 20.332031-23.390625 27.105468zm-28.867188-119.1875c1.136719.164063 2.269531.296875 3.382813.519531l7.492187 19.980469c2.050781 5.597657 3.71875 11.328125 4.996094 17.15625h-15.867187v-37.65625zm0 56.867188h18.78125c.480469 6.394531.480469 12.816406 0 19.210937h-18.78125zm0 38.421875h15.871094c-1.277344 5.824218-2.945313 11.554687-4.996094 17.15625l-7.492187 19.976562c-1.113282.222656-2.246094.355469-3.382813.519532zm-70.261719 0h15.453126c1.578124 8.136718 3.828124 16.128906 6.726562 23.898437l1.179688 3.167969c-10.074219-6.765625-18.140626-16.113281-23.359376-27.066406zm51.050782 37.652344c-1.140625-.164063-2.304688-.296876-3.425782-.527344l-7.496093-19.972656c-2.050781-5.597657-3.722657-11.328126-4.992188-17.152344h15.914063zm-10.921875-112.441407 7.496093-19.972656c1.121094-.230469 2.285157-.363281 3.425782-.527344v37.652344h-15.914063c1.269531-5.824219 2.941407-11.554687 4.992188-17.152344zm-7.902344 36.367188h18.824219v19.210937h-18.824219c-.472656-6.398437-.472656-12.816406 0-19.210937zm-8.90625-46.28125-1.179687 3.167969c-2.898438 7.769531-5.148438 15.761718-6.726563 23.902343h-15.414063c5.207032-10.953125 13.261719-20.300781 23.320313-27.070312zm-10.316406 46.28125c-.402344 6.394531-.402344 12.8125 0 19.210937h-18.816407c-1.023437-6.363281-1.023437-12.851562 0-19.210937zm166.121093-116.324219c4.886719 4.585938 9.496094 9.460938 13.8125 14.589844l-14.6875 12.402344c-3.847656-4.554688-7.949218-8.886719-12.285156-12.980469zm-290.214843 105.882812 19.085937 2.199219c-.683594 5.921875-1.027344 11.882813-1.027344 17.847657l-19.210937.652343v-.652343c.003906-6.699219.386719-13.394532 1.152344-20.046876zm19.152343 38.496094c.707032 5.917969 1.757813 11.785156 3.152344 17.578125l-18.683594 4.488281c-1.5625-6.519531-2.746093-13.121093-3.542968-19.777343zm-9.921874-77.574218 18.039062 6.570312c-2.03125 5.605469-3.738281 11.320312-5.109375 17.117188l-18.691406-4.40625c1.539062-6.535157 3.464843-12.972657 5.761719-19.28125zm206.433593-88.195313 5.484375-18.414063c6.425782 1.914063 12.734375 4.203126 18.894532 6.847657l-7.578126 17.683593c-5.476562-2.367187-11.085937-4.410156-16.800781-6.117187zm-161.691406 48.574219-14.714844-12.355469c4.3125-5.128906 8.917969-10.007813 13.792969-14.609375l13.191406 13.96875c-4.339844 4.089844-8.433594 8.429688-12.269531 12.996094zm-26.710937 3.753906 16.039062 10.566406c-3.273438 4.980469-6.265625 10.144532-8.953125 15.464844l-17.152344-8.644531c3.015625-5.984375 6.375-11.789063 10.066407-17.386719zm288.800781-.257812c3.703125 5.589843 7.074219 11.390624 10.09375 17.375l-17.144531 8.644531c-2.6875-5.3125-5.683594-10.460938-8.972657-15.425781zm18.097656 35.808593c2.292969 6.285157 4.21875 12.699219 5.761719 19.210938l-18.683594 4.449219c-1.382812-5.792969-3.101562-11.503907-5.148438-17.097657zm-9.683594 76.980469 19.085938 2.171875c-.757813 6.65625-1.898438 13.269531-3.417969 19.796875l-18.703125-4.371094c1.347656-5.804687 2.359375-11.679687 3.035156-17.597656zm20.171875-17.886719h-19.210937c-.007813-5.960937-.363281-11.917969-1.058594-17.835937l19.078125-2.25c.785156 6.667968 1.183594 13.375 1.191406 20.085937zm-222.628906-165.292969 5.511719 18.40625c-5.703125 1.714844-11.300781 3.761719-16.769531 6.128907l-7.625-17.636719c6.152343-2.667969 12.460937-4.96875 18.882812-6.898438zm136.003906 15.792969c5.808594 3.347657 11.414063 7.035157 16.792969 11.035157l-11.449219 15.417968c-4.789062-3.554687-9.777344-6.832031-14.9375-9.816406zm-172.832031.164063 9.605469 16.625c-5.15625 2.988281-10.136719 6.273437-14.917969 9.835937l-11.527344-15.367187c5.394531-4.027344 11.015625-7.738282 16.839844-11.113282zm37.460937 315.542968 5.4375-18.425781c5.714844 1.683594 11.523438 3.035157 17.394532 4.042969l-3.265625 18.933594c-6.589844-1.144532-13.109375-2.671875-19.527344-4.570313zm40.585938-12.382812c5.953125.316406 11.921875.296875 17.875-.046875l1.152344 19.210937c-3.46875.171876-6.976563.257813-10.519532.257813-3.199218 0-6.378906-.085937-9.535156-.257813zm-67.941406-20.085938c5.171875 2.96875 10.511718 5.632813 15.992187 7.984376l-7.566406 17.652343c-6.167969-2.640625-12.175781-5.632812-17.992187-8.96875zm-41.824219-7.214843 13.152344-14.011719c4.34375 4.078125 8.925781 7.902344 13.714843 11.449219l-11.371093 15.417969c-5.394531-3.992188-10.554688-8.289063-15.457031-12.875zm145.371094 25.140625c5.867187-1.042969 11.664062-2.429688 17.367187-4.152344l5.554688 18.394531c-6.417969 1.933594-12.941406 3.492188-19.539063 4.667969zm50.054687-18.378906 9.664063 16.609374c-5.792969 3.371094-11.777344 6.402344-17.921875 9.078126l-7.6875-17.617188c5.484375-2.382812 10.820312-5.082031 15.984375-8.085938zm41.765625-7.441407c-4.867187 4.613281-10 8.9375-15.367187 12.957031l-11.527344-15.367187c4.769531-3.578125 9.332031-7.425781 13.660156-11.527344zm-70.886719-365.636719c.125-26.523437-21.273437-48.128906-47.800781-48.257812-26.523437-.125-48.128906 21.273438-48.253906 47.796875-.074219 15.265625 7.113281 29.65625 19.363281 38.765625l-15.523437 11.644531c-3.183594 2.390625-4.5625 6.496094-3.46875 10.324219l19.210937 67.238281c1.179688 4.121094 4.945313 6.964844 9.230469 6.964844h38.421875c4.289062 0 8.054688-2.84375 9.234375-6.964844l19.210937-67.238281c1.09375-3.828125-.285156-7.933594-3.46875-10.324219l-15.523437-11.644531c12.140625-8.992188 19.320313-23.195312 19.367187-38.304688zm-36.0625 115.265626h-23.9375l-15.367187-53.914063 18.914063-14.179687c5.582031 1.140624 11.339843 1.140624 16.925781 0l18.914062 14.179687zm-11.96875-86.449219c-15.914062 0-28.816406-12.902344-28.816406-28.816407 0-15.914062 12.902344-28.816406 28.816406-28.816406 15.917969 0 28.816407 12.902344 28.816407 28.816406 0 15.914063-12.898438 28.816407-28.816407 28.816407zm101.109376 247.515625-19.210938 33.273437c-2.167969 3.726563-1.589844 8.4375 1.414062 11.527344l48.632813 50.257813c1.816406 1.855468 4.308594 2.894531 6.90625 2.878906 1.292969.003906 2.574219-.261719 3.765625-.777344l17.796875-7.617188c.214844 2.265626.589844 4.511719 1.125 6.726563 5.628906 20.984375 24.628906 35.589844 46.355469 35.636719 4.21875-.007813 8.414062-.5625 12.488281-1.652344 25.621094-6.867188 40.828125-33.207031 33.960937-58.832031-6.867187-25.621094-33.207031-40.828125-58.832031-33.960938-2.1875.65625-4.328125 1.460938-6.40625 2.414063l-2.324219-19.210938c-.472656-3.957031-3.339843-7.207031-7.203124-8.175781l-67.816407-16.984375c-4.15625-1.042969-8.5.789062-10.652343 4.496094zm81.90625 69.46875c3.800781-6.640625 10.097656-11.484375 17.492187-13.449219 2.449219-.644531 4.96875-.96875 7.503906-.960937 15.914063.011718 28.808594 12.921874 28.796875 28.835937-.011718 15.914063-12.921875 28.808594-28.835937 28.800781-15.914063-.011718-28.808594-12.921875-28.796875-28.835937.003906-5.054688 1.332031-10.015625 3.859375-14.390625zm-68.890626-53.589844 54.398438 13.621094 2.820312 23.417968c-3.769531 4.300782-6.660156 9.304688-8.5 14.726563l-21.6875 9.257813-39-40.292969zm-300.921874 4.804688-2.324219 19.210937c-2.078125-.953125-4.21875-1.757813-6.40625-2.414063-25.625-6.867187-51.964844 8.339844-58.832031 33.960938-6.867188 25.625 8.339843 51.960938 33.960937 58.832031 4.074219 1.089844 8.269531 1.644531 12.488281 1.648438 8.40625-.003907 16.664063-2.230469 23.9375-6.453125 11.054688-6.34375 19.113282-16.84375 22.378906-29.164063.535157-2.210937.910157-4.457031 1.125-6.722656l17.835938 7.617187c1.191406.515626 2.472656.78125 3.765625.777344 2.597656.015625 5.089844-1.027344 6.90625-2.878906l48.632813-50.257812c3.003906-3.089844 3.582031-7.800782 1.414062-11.527344l-19.210938-33.273438c-2.144531-3.714844-6.492187-5.554687-10.652343-4.515625l-67.84375 16.945313c-3.855469.976562-6.707031 4.226562-7.175781 8.175781zm18.25 8.855468 54.394531-13.621094 11.96875 20.726563-38.996094 40.34375-21.566406-9.210937h-.105469c-.9375-2.734376-2.113281-5.382813-3.515625-7.914063-1.453125-2.457031-3.117187-4.78125-4.976563-6.945313zm-11.613282 61.832032c-1.964844 7.394531-6.808594 13.695312-13.449218 17.5-13.792969 7.9375-31.410157 3.195312-39.351563-10.597657-7.9375-13.792969-3.191406-31.410156 10.601563-39.351562 4.363281-2.511719 9.308593-3.835938 14.34375-3.84375 2.53125-.007813 5.050781.316406 7.5.960937 15.371093 4.121094 24.492187 19.921875 20.375 35.292969zm0 0" fill="url(#a)"/></svg>