<svg height="511pt" viewBox="0 -4 511.99937 511" width="511pt" xmlns="http://www.w3.org/2000/svg" xmlns:xlink="http://www.w3.org/1999/xlink"><linearGradient id="a" gradientTransform="matrix(.383665 0 0 -.383665 0 498.883408)" gradientUnits="userSpaceOnUse" x1="147.8547" x2="1069.8715" y1="229.8741" y2="1151.8909"><stop offset="0" stop-color="#f87e33"/><stop offset="1" stop-color="#fc6363"/></linearGradient><path d="m392 270.445312c-1.296875-3.242187-4.4375-5.367187-7.929688-5.367187h-256.046874c-3.492188 0-6.632813 2.125-7.929688 5.367187l-34.136719 85.351563c-1.75 4.375.378907 9.34375 4.757813 11.089844 1.007812.402343 2.082031.609375 3.167968.609375h51.210938v128.023437c0 4.714844 3.820312 8.535157 8.535156 8.535157h204.835938c4.714844 0 8.535156-3.820313 8.535156-8.535157v-128.023437h51.210938c4.710937.003906 8.535156-3.816406 8.539062-8.53125 0-1.085938-.207031-2.160156-.609375-3.167969zm-59.140625 47.488282 13 32.492187h-13zm-136.558594-35.785156h119.492188v68.277343h-119.492188zm76.816407 85.347656v39.363281l-14.375-4.78125c-1.746094-.589844-3.644532-.589844-5.390626 0l-14.375 4.78125v-39.363281zm-125.265626-17.070313h-41.363281l27.3125-68.277343h41.359375zm31.382813-32.492187v32.492187h-13zm170.695313 169.050781h-187.765626v-119.488281h59.742188v51.210937c.003906 4.710938 3.828125 8.53125 8.542969 8.527344.914062 0 1.824219-.148437 2.691406-.4375l22.90625-7.628906 22.90625 7.628906c.871094.292969 1.78125.445313 2.699219.445313 4.714844 0 8.535156-3.824219 8.535156-8.535157v-51.210937h59.742188zm14.3125-136.558594-27.308594-68.277343h41.359375l27.3125 68.277343zm-74.054688 93.886719h42.671875c4.714844 0 8.535156 3.820312 8.535156 8.53125 0 4.714844-3.820312 8.535156-8.535156 8.535156h-42.671875c-4.714844 0-8.535156-3.820312-8.535156-8.535156 0-4.710938 3.820312-8.53125 8.535156-8.53125zm196.214844-291.84375c-.894532-28.234375-24.507813-50.398438-52.742188-49.507812-26.980468.855468-48.652344 22.527343-49.503906 49.507812-24.46875 14.117188-32.859375 45.398438-18.742188 69.867188 14.117188 24.46875 45.394532 32.859374 69.863282 18.742187 24.46875 14.117187 55.75 5.726563 69.867187-18.742187 14.117188-24.46875 5.726563-55.75-18.742187-69.867188zm-51.121094-32.484375c15.765625.042969 29.457031 10.878906 33.113281 26.21875-11.4375-1.816406-23.148437.417969-33.113281 6.316406-9.96875-5.898437-21.679688-8.132812-33.117188-6.316406 3.660157-15.339844 17.347657-26.175781 33.117188-26.21875zm32.6875 43.433594c-1.769531 6.234375-5.285156 11.835937-10.132812 16.140625-1.917969-5.367188-4.71875-10.375-8.285157-14.816406 5.878907-2.214844 12.277344-2.675782 18.417969-1.324219zm-25.605469 24.085937c-4.667969 1.011719-9.5 1.011719-14.167969 0 1.367188-4.820312 3.785157-9.277344 7.085938-13.050781 3.296875 3.773437 5.714844 8.230469 7.082031 13.050781zm-32.6875 43.433594c-18.785156.070312-34.066406-15.105469-34.132812-33.886719-.039063-9.832031 4.183593-19.199219 11.574219-25.6875 4.113281 11.421875 12.132812 21.019531 22.640624 27.089844.335938 11.089844 4.289063 21.765625 11.25 30.402344-3.628906 1.339843-7.464843 2.042969-11.332031 2.082031zm3.046875-51.378906c-4.847656-4.304688-8.363281-9.902344-10.132812-16.140625 6.136718-1.351563 12.539062-.894531 18.417968 1.324219-3.566406 4.441406-6.367187 9.449218-8.285156 14.816406zm22.558594 39.585937c-3.640625-4.125-6.21875-9.078125-7.511719-14.425781 4.972657.820312 10.046875.820312 15.019531 0-1.289062 5.347656-3.871093 10.300781-7.507812 14.425781zm25.601562 11.792969c-3.867187-.039062-7.703124-.742188-11.332031-2.082031 6.960938-8.636719 10.914063-19.3125 11.25-30.402344 10.507813-6.070313 18.527344-15.667969 22.640625-27.089844 14.117188 12.390625 15.519532 33.882813 3.128906 48-6.488281 7.390625-15.855468 11.609375-25.6875 11.574219zm-136.558593-173.625c0-2.574219-1.164063-5.011719-3.164063-6.632812l-59.746094-48.28125c-3.128906-2.53125-7.605468-2.53125-10.734374 0l-59.746094 48.28125c-3.664063 2.964843-4.234375 8.339843-1.269532 12.003906.378907.46875.804688.890625 1.269532 1.269531l23.472656 18.964844-23.472656 18.972656c-3.664063 2.964844-4.234375 8.339844-1.269532 12.003906.378907.464844.804688.890625 1.269532 1.269531l21.664062 17.496094-21.664062 17.503906c-3.664063 2.964844-4.234375 8.339844-1.269532 12.003907.378907.464843.804688.890625 1.269532 1.269531l59.746094 48.28125c3.128906 2.53125 7.605468 2.53125 10.734374 0l59.746094-48.28125c3.664063-2.964844 4.230469-8.339844 1.269532-12.003906-.378907-.46875-.804688-.890625-1.269532-1.269532l-21.660156-17.503906 21.660156-17.496094c3.664063-2.964843 4.234375-8.339843 1.269532-12.003906-.378907-.46875-.804688-.890625-1.269532-1.269531l-23.480468-18.972656 23.480468-18.964844c2.003906-1.621094 3.167969-4.0625 3.164063-6.640625zm-22.113281 99.484375-46.164063 37.3125-46.164063-37.3125 16.292969-13.160156 24.503907 19.800781c3.128906 2.53125 7.605468 2.53125 10.734374 0l24.503907-19.800781zm0-48.273437-46.164063 37.296874-46.164063-37.296874 18.101563-14.636719 22.695313 18.339843c3.128906 2.53125 7.605468 2.53125 10.734374 0l22.695313-18.332031zm-46.164063-13.914063-46.164063-37.296875 46.164063-37.304688 46.164063 37.304688zm-162.164063 80.433594c10.882813-9.621094 17.101563-23.460938 17.070313-37.988281 0-28.28125-22.925781-51.210938-51.210937-51.210938-28.28125 0-51.207032 22.929688-51.207032 51.210938-.03125 14.527343 6.1875 28.367187 17.070313 37.988281v38.824219c0 18.855468 15.285156 34.140624 34.140625 34.140624 18.851562 0 34.136718-15.285156 34.136718-34.140624zm-34.136718 55.894531c-9.429688 0-17.070313-7.640625-17.070313-17.070312h34.136719c0 9.429687-7.640625 17.070312-17.066406 17.070312zm20.269531-66.570312c-2.554687 1.925781-3.796875 5.132812-3.203125 8.277343v24.152344h-8.535156v-45.046875c8.167968-4.710938 10.964844-15.152344 6.25-23.316406-4.714844-8.164063-15.152344-10.960938-23.316406-6.246094-8.164063 4.710938-10.964844 15.152344-6.25 23.316406 1.5 2.59375 3.652343 4.75 6.25 6.246094v45.046875h-8.535157v-23.621094c.78125-3.3125-.472656-6.773437-3.203125-8.808593-8.71875-6.367188-13.871094-16.515626-13.867187-27.3125 0-18.855469 15.285156-34.140626 34.140625-34.140626 18.851562 0 34.136718 15.285157 34.136718 34.140626.003907 10.796874-5.148437 20.945312-13.867187 27.3125zm65.078125-18.777344h17.070312v17.070312h-17.070312zm-93.882812-76.8125v-17.070313h17.066406v17.066407h-17.066406zm51.207031 0h17.070312v17.066406h-17.070312zm-85.347657 17.066406h-17.070312v-17.066406h17.070312zm230.441407 145.09375h17.070312v17.070312h-17.070312zm110.953125-128.023438v-17.070312h17.070312v17.070312zm0 0" fill="url(#a)"/></svg>