<svg height="511pt" viewBox="-30 1 511 511.99965" width="511pt" xmlns="http://www.w3.org/2000/svg" xmlns:xlink="http://www.w3.org/1999/xlink"><linearGradient id="a" gradientTransform="matrix(.397075 0 0 -.397075 -30.394186 511.432803)" gradientUnits="userSpaceOnUse" x1="105.2293" x2="1093.2535" y1="72.3411" y2="1060.3655"><stop offset="0" stop-color="#f87e33"/><stop offset="1" stop-color="#fc6363"/></linearGradient><path d="m271.46875 332.800781c-12.050781 12.082031-12.050781 31.640625 0 43.722657 3.507812 3.390624 3.605469 8.980468.214844 12.488281-3.390625 3.511719-8.980469 3.609375-12.488282.21875-.074218-.070313-.148437-.144531-.21875-.21875-18.945312-18.980469-18.945312-49.71875 0-68.703125 3.507813-3.390625 9.101563-3.292969 12.492188.21875 3.304688 3.421875 3.304688 8.847656 0 12.273437zm43.722656-12.492187c-3.449218 3.449218-3.449218 9.042968 0 12.492187 12.050782 12.082031 12.050782 31.640625 0 43.722657-3.507812 3.390624-3.605468 8.980468-.214844 12.488281 3.386719 3.511719 8.980469 3.609375 12.488282.21875.074218-.070313.144531-.144531.214844-.21875 18.9375-18.984375 18.9375-49.714844 0-68.703125-3.449219-3.449219-9.039063-3.449219-12.488282 0zm128.082032 146.78125c10.167968 10.527344 9.875 27.304687-.652344 37.472656-10.269532 9.917969-26.550782 9.917969-36.820313 0l-51.972656-51.933594v15.53125c0 4.878906-3.957031 8.832032-8.832031 8.832032h-335.664063c-4.878906 0-8.832031-3.953126-8.832031-8.832032v-423.996094c0-4.875 3.953125-8.832031 8.832031-8.832031h88.332031v-26.5c0-4.878906 3.957032-8.832031 8.835938-8.832031h141.328125c4.878906 0 8.835937 3.953125 8.835937 8.832031v26.5h88.332032c4.878906 0 8.832031 3.957031 8.832031 8.835938v252.496093c.636719.601563 1.308594 1.121094 1.925781 1.765626 25.472656 25.570312 31.773438 64.546874 15.652344 96.839843zm-327.941407-396.425782h123.664063v-52.996093h-123.664063zm220.828125 364.300782-2.226562-2.226563c-41.429688 20.769531-91.851563 4.023438-112.621094-37.410156-20.769531-41.429687-4.023438-91.851563 37.40625-112.621094 24.460938-12.261719 53.359375-11.832031 77.441406 1.15625v-230.863281h-79.496094v26.5c0 4.878906-3.957031 8.832031-8.835937 8.832031h-141.328125c-4.878906 0-8.835938-3.953125-8.835938-8.832031v-26.5h-79.496093v406.324219h317.992187zm7.066406-124.035156c-25.875-25.871094-67.820312-25.863282-93.6875.011718-25.871093 25.875-25.863281 67.820313.011719 93.691406 25.871094 25.863282 67.804688 25.863282 93.675781 0 25.875-25.71875 26.003907-67.542968.289063-93.417968-.097656-.09375-.191406-.191406-.289063-.285156zm87.449219 168.710937-69.074219-69.074219c-3.703124 4.597656-7.890624 8.785156-12.492187 12.492188l69.078125 69.074218c3.507812 3.390626 9.101562 3.292969 12.488281-.21875 3.308594-3.421874 3.308594-8.847656 0-12.273437zm-229.867187-244.042969c1.851562 3.636719 2.828125 7.652344 2.855468 11.730469 0 14.636719-11.863281 26.5-26.5 26.5-14.636718 0-26.5-11.863281-26.5-26.5.027344-4.074219 1.003907-8.089844 2.851563-11.71875l-29.414063-25.21875c-5.648437 2.140625-11.890624 2.140625-17.542968 0l-47.316406 40.550781c-3.554688 3.34375-9.144532 3.175782-12.488282-.375-3.34375-3.554687-3.175781-9.144531.378906-12.488281.199219-.1875.40625-.367187.625-.535156l44.914063-38.503907c-2.488281-4.078124-3.816406-8.761718-3.839844-13.542968 0-14.632813 11.863281-26.5 26.5-26.5 14.632813 0 26.5 11.867187 26.5 26.5-.023437 4.78125-1.351562 9.460937-3.84375 13.542968l28.265625 24.210938c6.925782-3.226562 14.925782-3.226562 21.851563 0l28.269531-24.210938c-2.503906-4.078124-3.84375-8.757812-3.878906-13.542968 0-14.632813 11.863281-26.5 26.5-26.5 14.632812 0 26.5 11.867187 26.5 26.5-.027344 4.78125-1.355469 9.460937-3.84375 13.542968l44.917968 38.496094c3.621094 3.265625 3.910157 8.851563.644532 12.472656-3.148438 3.492188-8.480469 3.90625-12.128906.945313l-47.328126-40.5625c-5.648437 2.140625-11.882812 2.140625-17.535156 0zm29.355468-50.101562c0 4.878906 3.953126 8.835937 8.832032 8.835937s8.832031-3.957031 8.832031-8.835937-3.953125-8.832032-8.832031-8.832032-8.832032 3.953126-8.832032 8.832032zm-106 0c0-4.878906-3.953124-8.832032-8.832031-8.832032-4.878906 0-8.832031 3.953126-8.832031 8.832032s3.953125 8.835937 8.832031 8.835937c4.878907 0 8.832031-3.957031 8.832031-8.835937zm61.832032 61.832031c0-4.878906-3.953125-8.832031-8.832032-8.832031-4.878906 0-8.832031 3.953125-8.832031 8.832031s3.953125 8.835937 8.832031 8.835937c4.878907 0 8.832032-3.957031 8.832032-8.835937zm-53 61.832031h-70.664063c-4.878906 0-8.832031 3.957032-8.832031 8.835938s3.953125 8.832031 8.832031 8.832031h70.664063c4.878906 0 8.835937-3.953125 8.835937-8.832031s-3.957031-8.835938-8.835937-8.835938zm0 35.335938h-70.664063c-4.878906 0-8.832031 3.953125-8.832031 8.832031s3.953125 8.832031 8.832031 8.832031h70.664063c4.878906 0 8.835937-3.953125 8.835937-8.832031s-3.957031-8.832031-8.835937-8.832031zm0 35.332031h-70.664063c-4.878906 0-8.832031 3.953125-8.832031 8.832031s3.953125 8.832032 8.832031 8.832032h70.664063c4.878906 0 8.835937-3.953126 8.835937-8.832032s-3.957031-8.832031-8.835937-8.832031zm0 0" fill="url(#a)"/></svg>