<svg height="512pt" viewBox="-90 0 512 512" width="512pt" xmlns="http://www.w3.org/2000/svg" xmlns:xlink="http://www.w3.org/1999/xlink"><linearGradient id="a" gradientTransform="matrix(.383592 0 0 -.383592 -89.601053 528.200796)" gradientUnits="userSpaceOnUse" x1="87.2356" x2="1002.8117" y1="391.0112" y2="1306.5873"><stop offset="0" stop-color="#f87e33"/><stop offset="1" stop-color="#fc6363"/></linearGradient><path d="m204.796875 8.535156c0-4.714844-3.820313-8.535156-8.53125-8.535156h-187.730469c-4.714844 0-8.535156 3.820312-8.535156 8.535156v315.730469c0 4.710937 3.820312 8.53125 8.535156 8.53125h187.730469c4.710937 0 8.535156-3.820313 8.535156-8.53125v-59.734375h119.464844c4.710937 0 8.53125-3.820312 8.53125-8.53125v-187.734375c0-4.710937-3.820313-8.53125-8.53125-8.53125h-119.46875zm-17.066406 307.195313h-170.664063v-51.199219h170.667969v51.199219zm0-247.464844v179.199219h-170.664063v-196.265625h170.667969v17.066406zm0-34.132813h-170.664063v-17.066406h170.667969v17.066406zm110.933593 42.667969h17.066407v170.664063h-17.066407zm-34.132812 0h17.066406v170.664063h-17.066406zm-59.734375 34.132813c4.714844 0 8.535156 3.820312 8.535156 8.53125-.050781.5-.152343.996094-.300781 1.476562-2.644531-.941406-5.425781-1.441406-8.234375-1.476562zm0 34.132812c2.847656-.03125 5.664063-.542968 8.339844-1.511718.117187.496093.183593 1.003906.195312 1.511718-.1875 4.617188-3.914062 8.308594-8.535156 8.449219zm42.667969-68.265625v170.664063h-42.667969v-76.800782c14.140625 0 25.601563-11.460937 25.601563-25.597656-.027344-4.507812-1.253907-8.925781-3.558594-12.800781 2.304687-3.875 3.53125-8.292969 3.558594-12.800781 0-14.136719-11.460938-25.597656-25.601563-25.597656v-17.066407zm-170.664063 213.332031c0-4.714843 3.820313-8.535156 8.53125-8.535156h25.601563c4.710937 0 8.53125 3.820313 8.53125 8.535156 0 4.710938-3.820313 8.53125-8.53125 8.53125h-25.601563c-4.710937 0-8.53125-3.820312-8.53125-8.53125zm34.132813 76.796876h-17.066406v-17.066407h17.066406zm34.132812 17.066406h-17.066406v-17.066406h17.066406zm-68.265625-17.066406v17.066406h-17.066406v-17.066406zm-22.1875 49.492187c-19.792969 26.394531-14.445312 63.835937 11.945313 83.628906 26.394531 19.792969 63.832031 14.445313 83.628906-11.949219 19.792969-26.390624 14.445312-63.832031-11.949219-83.625-26.402343-19.753906-63.8125-14.410156-83.625 11.945313zm13.652344 10.242187c14.140625-18.851562 40.882813-22.671874 59.734375-8.535156 18.851562 14.140625 22.671875 40.882813 8.53125 59.734375-14.136719 18.851563-40.878906 22.671875-59.730469 8.535157-18.808593-14.167969-22.625-40.871094-8.535156-59.734376zm10.589844 35.652344c-1.921875-4.304687.003906-9.351562 4.308593-11.273437 4.300782-1.921875 9.347657.003906 11.273438 4.308593.039062.09375.082031.1875.121094.28125 1.195312 2.804688 3.796875 4.757813 6.824218 5.121094 4.679688.558594 8.023438 4.800782 7.46875 9.480469-.511718 4.289063-4.148437 7.523437-8.464843 7.527344-.332031 0-.675781 0-1.015625-.050781-9.082032-1.09375-16.886719-6.949219-20.480469-15.359376zm17.066406-28c.558594-4.675781 4.796875-8.015625 9.472656-7.464844 9.082031 1.09375 16.886719 6.949219 20.480469 15.359376 1.921875 4.300781-.003906 9.351562-4.308594 11.273437-4.300781 1.921875-9.347656-.003906-11.273437-4.308594-.039063-.09375-.082031-.1875-.121094-.28125-1.195313-2.804687-3.796875-4.757812-6.824219-5.121093-4.625-.597657-7.910156-4.796876-7.382812-9.429688zm-53.253906-323.382812h19.445312l6.417969 19.242187 8.269531 41.34375v16.210938c0 4.714843 3.820313 8.535156 8.53125 8.535156 4.714844 0 8.535157-3.820313 8.535157-8.535156v-8.53125h25.597656v8.53125c0 4.714843 3.820312 8.535156 8.535156 8.535156 4.710938 0 8.535156-3.820313 8.535156-8.535156v-16.210938l8.359375-41.8125c.945313-4.617187-2.035156-9.125-6.652343-10.070312-.5625-.113281-1.136719-.171875-1.707032-.171875h-53.589844l-6.589843-19.761719c-1.160157-3.484375-4.417969-5.835937-8.089844-5.835937h-25.597656c-4.714844 0-8.535157 3.820312-8.535157 8.53125 0 4.714843 3.820313 8.535156 8.535157 8.535156zm83.453125 25.597656-5.121094 25.601562h-28.679688l-5.117187-25.601562zm0 0" fill="url(#a)"/></svg>