<svg height="512pt" viewBox="0 -38 512.00038 512" width="512pt" xmlns="http://www.w3.org/2000/svg" xmlns:xlink="http://www.w3.org/1999/xlink"><linearGradient id="a" gradientTransform="matrix(.383595 0 0 -.383595 0 481.271007)" gradientUnits="userSpaceOnUse" x1="7.529" x2="1152.0244" y1="125.6058" y2="1270.1013"><stop offset="0" stop-color="#f87e33"/><stop offset="1" stop-color="#fc6363"/></linearGradient><path d="m8.535156 435.199219h375.464844c4.714844 0 8.535156-3.820313 8.535156-8.53125v-94.636719c24.601563-4.179688 42.617188-25.472656 42.664063-50.429688v-8.535156c0-4.710937-3.820313-8.535156-8.53125-8.535156h-68.269531c-16.738282.039062-30.972657 12.226562-33.585938 28.757812-7.125-1.996093-14.480469-3.058593-21.878906-3.15625h-38.398438v-22.910156c20.816406-9.878906 34.101563-30.847656 34.132813-53.890625v-67.574219l10.078125-60.425781h-72.484375c-31.492188.0625-57.003907 25.578125-57.0625 57.070313v70.929687c.03125 23.042969 13.316406 44.011719 34.132812 53.890625v22.910156h-42.664062c0-4.710937-3.820313-8.535156-8.535157-8.535156h-153.597656c-4.714844.003906-8.535156 3.824219-8.535156 8.535156v136.535157c0 4.710937 3.820312 8.53125 8.535156 8.53125zm332.796875-136.53125c0-9.425781 7.640625-17.066407 17.066407-17.066407h59.734374c0 18.851563-15.28125 34.132813-34.132812 34.132813h-42.667969zm0 34.132812h34.132813v85.332031h-34.132813zm-114.191406-25.601562h23.585937l-11.792968 23.585937zm3.257813-17.066407v-17.066406h17.066406v17.066406zm72.535156 17.066407c7.003906.09375 13.949218 1.273437 20.589844 3.5.246093.054687.492187.097656.742187.128906v107.304687h-76.800781v-62.488281l37.300781-14.917969c4.378906-1.746093 6.511719-6.707031 4.765625-11.085937-.089844-.222656-.1875-.441406-.292969-.65625l-10.898437-21.785156zm-33.117188 21.128906-13.210937 5.273437 7.929687-15.855468zm11.785156-123.527344h-17.066406v-17.066406h17.066406zm-45.339843-102.402343h52.328125l-5.683594 34.136718h-86.214844c2.953125-19.589844 19.761719-34.089844 39.570313-34.136718zm-39.996094 51.203124h85.335937v17.066407h-85.335937zm0 34.132813h17.066406v17.066406h-17.066406zm.855469 34.132813h33.277344v-34.132813h17.066406v34.132813h33.28125c-4.6875 23.09375-27.210938 38.011718-50.304688 33.324218-16.789062-3.410156-29.914062-16.535156-33.320312-33.324218zm16.210937 95.878906 7.929688 15.855468-13.210938-5.273437zm-42.664062-10.546875h28.859375l-10.898438 21.785156c-2.105468 4.214844-.398437 9.34375 3.816406 11.449219.214844.105468.433594.207031.65625.292968l37.296876 14.917969v29.925781c-2.730469-1.011718-5.617188-1.542968-8.53125-1.570312h-51.199219zm0 93.867187h51.199219c4.710937 0 8.53125 3.820313 8.53125 8.535156v8.53125h-59.730469zm-153.601563-102.398437h136.535156v119.464843h-136.535156zm59.734375 25.597656c-14.140625 0-25.601562 11.460937-25.601562 25.601563 0 14.136718 11.460937 25.597656 25.601562 25.597656 14.136719 0 25.597657-11.460938 25.597657-25.597656 0-14.140626-11.460938-25.601563-25.597657-25.601563zm0 34.132813c-4.714843 0-8.535156-3.820313-8.535156-8.53125 0-4.714844 3.820313-8.535157 8.535156-8.535157 4.710938 0 8.53125 3.820313 8.53125 8.535157 0 4.710937-3.820312 8.53125-8.53125 8.53125zm366.933594-221.867188c.023437 8.46875-4.761719 16.214844-12.339844 19.988281l-3.261719 1.621094c-.46875.238281-.980468.332031-1.464843.527344v3.464843c0 4.714844-3.820313 8.535157-8.535157 8.535157-4.710937 0-8.53125-3.820313-8.53125-8.535157v-3.414062c-.480468-.203125-.992187-.289062-1.460937-.527344l-10.886719-5.445312c-4.21875-2.105469-5.929687-7.234375-3.824218-11.453125 2.105468-4.214844 7.234374-5.929688 11.453124-3.820313l10.894532 5.453125c1.484375.730469 3.226562.730469 4.710937 0l3.25-1.621093c2.609375-1.296876 3.675781-4.460938 2.378907-7.070313-.511719-1.03125-1.347657-1.867187-2.378907-2.378906l-18.855469-9.429688c-11.039062-5.523437-15.507812-18.949219-9.984374-29.988281 2.164062-4.316406 5.664062-7.820312 9.984374-9.980469l3.257813-1.621093c.46875-.238282.980469-.332032 1.46875-.527344v-3.507813c0-4.714843 3.820313-8.535156 8.53125-8.535156 4.714844 0 8.535156 3.820313 8.535156 8.535156v3.457031c.476563.195313.988281.289063 1.460938.527344l10.886719 5.445313c4.21875 2.105469 5.929687 7.234375 3.824218 11.449219-2.109375 4.21875-7.234375 5.929687-11.453125 3.824218l-10.898437-5.453125c-1.484375-.734375-3.226563-.734375-4.710938 0l-3.25 1.621094c-2.609375 1.296875-3.671875 4.460937-2.378906 7.070313.511719 1.03125 1.347656 1.863281 2.378906 2.375l18.859375 9.429687c7.582031 3.773437 12.363281 11.519531 12.339844 19.984375zm-85.335937-25.597656h17.066406v17.066406h-17.066406zm102.402343 0h17.066407v17.066406h-17.066407zm0-76.800782h-85.335937c-28.261719.027344-51.171875 22.933594-51.199219 51.199219v85.335938c.015625 15.558593 10.539063 29.144531 25.601563 33.046875v35.21875c0 4.710937 3.820312 8.53125 8.53125 8.53125 1.78125.007812 3.515624-.550782 4.960937-1.59375l57.503906-41.070313h39.9375c28.265625-.027343 51.171875-22.933593 51.199219-51.199219v-68.269531c-.027344-28.265625-22.933594-51.171875-51.199219-51.199219zm34.132813 119.46875c0 18.851563-15.28125 34.132813-34.132813 34.132813h-42.667969c-1.777343-.003906-3.511718.554687-4.957031 1.59375l-46.242187 33.023437v-26.085937c0-4.710937-3.820313-8.53125-8.535156-8.53125-9.425782 0-17.066407-7.640625-17.066407-17.066406v-85.335938c0-18.851562 15.285157-34.132812 34.132813-34.132812h85.335937c18.851563 0 34.132813 15.28125 34.132813 34.132812zm-456.023438-76.800781c.03125 13.371094 6.351563 25.945313 17.066406 33.945313v.1875 17.066406c0 14.136719 11.464844 25.601562 25.601563 25.601562 14.140625 0 25.601563-11.464843 25.601563-25.601562v-17.066406c0-.070313-.042969-.121094-.042969-.1875 18.78125-14.15625 22.535156-40.863282 8.375-59.644532-14.15625-18.785156-40.859375-22.535156-59.644531-8.378906-10.695313 8.0625-16.976563 20.683594-16.957032 34.078125zm51.203125 51.199219c0 4.714844-3.820312 8.535156-8.535156 8.535156-4.710937 0-8.53125-3.820312-8.53125-8.535156v-8.535156h17.066406zm-8.535156-76.800781c14.140625 0 25.601563 11.460937 25.601563 25.601562 0 14.136719-11.460938 25.597657-25.601563 25.597657-14.136719 0-25.597656-11.460938-25.597656-25.597657 0-14.140625 11.460937-25.601562 25.597656-25.601562zm8.535156-34.132813h-17.066406v-17.066406h17.066406zm-46.78125-7.414062 10.035157 13.804687-13.796876 10.035157-10.035156-13.804688zm-21.195312 56.804687-16.214844-5.273437 5.273437-16.214844 16.214844 5.277344zm-16.214844 25.957031 16.214844-5.273437 5.265625 16.214844-16.214844 5.273437zm135.117187-5.273437 16.214844 5.273437-5.265625 16.214844-16.214843-5.273437zm16.214844-25.957031-16.214844 5.273437-5.265624-16.210937 16.214843-5.277344zm-47.472656-37.726563 10.035156-13.804687 13.796875 10.035156-10.035156 13.804688zm154.753906 352.007813h42.664063v17.066406h-42.664063zm0 0" fill="url(#a)"/></svg>