<svg id="Layer_1" data-name="Layer 1" xmlns="http://www.w3.org/2000/svg" viewBox="0 0 452.49 574.42"><title>face</title><line x1="226.25" y1="573.75" x2="308.23" y2="534.02" style="fill:none;stroke:#fff5f5;stroke-miterlimit:10;stroke-width:1.5px"/><line x1="308.23" y1="534.02" x2="388.52" y2="454.58" style="fill:none;stroke:#fff5f5;stroke-miterlimit:10;stroke-width:1.5px"/><line x1="388.52" y1="454.58" x2="439.23" y2="324.42" style="fill:none;stroke:#fff5f5;stroke-miterlimit:10;stroke-width:1.5px"/><line x1="388.52" y1="454.58" x2="318.61" y2="343.01" style="fill:none;stroke:#fff5f5;stroke-miterlimit:10;stroke-width:1.5px"/><line x1="318.61" y1="343.01" x2="439.23" y2="324.42" style="fill:none;stroke:#fff5f5;stroke-miterlimit:10;stroke-width:1.5px"/><line x1="388.52" y1="454.58" x2="226.25" y2="392.03" style="fill:none;stroke:#fff5f5;stroke-miterlimit:10;stroke-width:1.5px"/><line x1="226.25" y1="392.03" x2="292.17" y2="381.89" style="fill:none;stroke:#fff5f5;stroke-miterlimit:10;stroke-width:1.5px"/><line x1="292.17" y1="381.89" x2="318.61" y2="343.01" style="fill:none;stroke:#fff5f5;stroke-miterlimit:10;stroke-width:1.5px"/><line x1="292.17" y1="381.89" x2="272.73" y2="333.72" style="fill:none;stroke:#fff5f5;stroke-miterlimit:10;stroke-width:1.5px"/><line x1="272.73" y1="333.72" x2="249.91" y2="333.98" style="fill:none;stroke:#fff5f5;stroke-miterlimit:10;stroke-width:1.5px"/><line x1="249.91" y1="333.98" x2="241.72" y2="226.38" style="fill:none;stroke:#fff5f5;stroke-miterlimit:10;stroke-width:1.5px"/><line x1="241.72" y1="226.38" x2="287.52" y2="175.67" style="fill:none;stroke:#fff5f5;stroke-miterlimit:10;stroke-width:1.5px"/><line x1="287.52" y1="175.67" x2="372.3" y2="140.17" style="fill:none;stroke:#fff5f5;stroke-miterlimit:10;stroke-width:1.5px"/><line x1="372.3" y1="140.17" x2="451.75" y2="175.67" style="fill:none;stroke:#fff5f5;stroke-miterlimit:10;stroke-width:1.5px"/><line x1="451.75" y1="175.67" x2="439.23" y2="324.42" style="fill:none;stroke:#fff5f5;stroke-miterlimit:10;stroke-width:1.5px"/><line x1="372.3" y1="140.17" x2="344.27" y2="229.46" style="fill:none;stroke:#fff5f5;stroke-miterlimit:10;stroke-width:1.5px"/><line x1="344.27" y1="229.46" x2="451.75" y2="175.67" style="fill:none;stroke:#fff5f5;stroke-miterlimit:10;stroke-width:1.5px"/><line x1="344.27" y1="229.46" x2="241.72" y2="226.38" style="fill:none;stroke:#fff5f5;stroke-miterlimit:10;stroke-width:1.5px"/><line x1="344.27" y1="229.46" x2="318.61" y2="343.01" style="fill:none;stroke:#fff5f5;stroke-miterlimit:10;stroke-width:1.5px"/><line x1="439.23" y1="324.42" x2="344.27" y2="229.46" style="fill:none;stroke:#fff5f5;stroke-miterlimit:10;stroke-width:1.5px"/><line x1="249.91" y1="333.98" x2="344.27" y2="229.46" style="fill:none;stroke:#fff5f5;stroke-miterlimit:10;stroke-width:1.5px"/><line x1="272.73" y1="333.72" x2="318.61" y2="343.01" style="fill:none;stroke:#fff5f5;stroke-miterlimit:10;stroke-width:1.5px"/><line x1="451.75" y1="175.67" x2="367.39" y2="43.82" style="fill:none;stroke:#fff5f5;stroke-miterlimit:10;stroke-width:1.5px"/><line x1="367.39" y1="43.82" x2="226.25" y2="133.8" style="fill:none;stroke:#fff5f5;stroke-miterlimit:10;stroke-width:1.5px"/><line x1="372.3" y1="140.17" x2="226.25" y2="133.8" style="fill:none;stroke:#fff5f5;stroke-miterlimit:10;stroke-width:1.5px"/><line x1="367.39" y1="43.82" x2="226.25" y2="0.72" style="fill:none;stroke:#fff5f5;stroke-miterlimit:10;stroke-width:1.5px"/><line x1="226.25" y1="461.38" x2="311.08" y2="461.82" style="fill:none;stroke:#fff5f5;stroke-miterlimit:10;stroke-width:1.5px"/><line x1="226.25" y1="490.92" x2="311.08" y2="461.82" style="fill:none;stroke:#fff5f5;stroke-miterlimit:10;stroke-width:1.5px"/><line x1="311.08" y1="461.82" x2="308.23" y2="534.02" style="fill:none;stroke:#fff5f5;stroke-miterlimit:10;stroke-width:1.5px"/><line x1="226.25" y1="490.92" x2="308.23" y2="534.02" style="fill:none;stroke:#fff5f5;stroke-miterlimit:10;stroke-width:1.5px"/><line x1="311.08" y1="461.82" x2="279.9" y2="412.92" style="fill:none;stroke:#fff5f5;stroke-miterlimit:10;stroke-width:1.5px"/><line x1="226.25" y1="573.75" x2="144.27" y2="534.02" style="fill:none;stroke:#fff5f5;stroke-miterlimit:10;stroke-width:1.5px"/><line x1="144.27" y1="534.02" x2="63.97" y2="454.58" style="fill:none;stroke:#fff5f5;stroke-miterlimit:10;stroke-width:1.5px"/><line x1="63.97" y1="454.58" x2="13.26" y2="324.42" style="fill:none;stroke:#fff5f5;stroke-miterlimit:10;stroke-width:1.5px"/><line x1="63.97" y1="454.58" x2="133.89" y2="343.01" style="fill:none;stroke:#fff5f5;stroke-miterlimit:10;stroke-width:1.5px"/><line x1="133.89" y1="343.01" x2="13.26" y2="324.42" style="fill:none;stroke:#fff5f5;stroke-miterlimit:10;stroke-width:1.5px"/><line x1="63.97" y1="454.58" x2="226.25" y2="392.03" style="fill:none;stroke:#fff5f5;stroke-miterlimit:10;stroke-width:1.5px"/><line x1="226.25" y1="392.03" x2="160.32" y2="381.89" style="fill:none;stroke:#fff5f5;stroke-miterlimit:10;stroke-width:1.5px"/><line x1="160.32" y1="381.89" x2="133.89" y2="343.01" style="fill:none;stroke:#fff5f5;stroke-miterlimit:10;stroke-width:1.5px"/><line x1="160.32" y1="381.89" x2="179.76" y2="333.72" style="fill:none;stroke:#fff5f5;stroke-miterlimit:10;stroke-width:1.5px"/><line x1="179.76" y1="333.72" x2="202.58" y2="333.98" style="fill:none;stroke:#fff5f5;stroke-miterlimit:10;stroke-width:1.5px"/><line x1="202.58" y1="333.98" x2="210.77" y2="226.38" style="fill:none;stroke:#fff5f5;stroke-miterlimit:10;stroke-width:1.5px"/><line x1="210.77" y1="226.38" x2="164.97" y2="175.67" style="fill:none;stroke:#fff5f5;stroke-miterlimit:10;stroke-width:1.5px"/><line x1="164.97" y1="175.67" x2="80.19" y2="140.17" style="fill:none;stroke:#fff5f5;stroke-miterlimit:10;stroke-width:1.5px"/><line x1="80.19" y1="140.17" x2="0.75" y2="175.67" style="fill:none;stroke:#fff5f5;stroke-miterlimit:10;stroke-width:1.5px"/><line x1="0.75" y1="175.67" x2="13.26" y2="324.42" style="fill:none;stroke:#fff5f5;stroke-miterlimit:10;stroke-width:1.5px"/><line x1="80.19" y1="140.17" x2="108.22" y2="229.46" style="fill:none;stroke:#fff5f5;stroke-miterlimit:10;stroke-width:1.5px"/><line x1="108.22" y1="229.46" x2="0.75" y2="175.67" style="fill:none;stroke:#fff5f5;stroke-miterlimit:10;stroke-width:1.5px"/><line x1="108.22" y1="229.46" x2="210.77" y2="226.38" style="fill:none;stroke:#fff5f5;stroke-miterlimit:10;stroke-width:1.5px"/><line x1="108.22" y1="229.46" x2="133.89" y2="343.01" style="fill:none;stroke:#fff5f5;stroke-miterlimit:10;stroke-width:1.5px"/><line x1="13.26" y1="324.42" x2="108.22" y2="229.46" style="fill:none;stroke:#fff5f5;stroke-miterlimit:10;stroke-width:1.5px"/><line x1="202.58" y1="333.98" x2="108.22" y2="229.46" style="fill:none;stroke:#fff5f5;stroke-miterlimit:10;stroke-width:1.5px"/><line x1="179.76" y1="333.72" x2="133.89" y2="343.01" style="fill:none;stroke:#fff5f5;stroke-miterlimit:10;stroke-width:1.5px"/><line x1="0.75" y1="175.67" x2="85.1" y2="43.82" style="fill:none;stroke:#fff5f5;stroke-miterlimit:10;stroke-width:1.5px"/><line x1="85.1" y1="43.82" x2="226.25" y2="133.8" style="fill:none;stroke:#fff5f5;stroke-miterlimit:10;stroke-width:1.5px"/><line x1="80.19" y1="140.17" x2="226.25" y2="133.8" style="fill:none;stroke:#fff5f5;stroke-miterlimit:10;stroke-width:1.5px"/><line x1="85.1" y1="43.82" x2="226.25" y2="0.72" style="fill:none;stroke:#fff5f5;stroke-miterlimit:10;stroke-width:1.5px"/><line x1="226.25" y1="461.38" x2="141.41" y2="461.82" style="fill:none;stroke:#fff5f5;stroke-miterlimit:10;stroke-width:1.5px"/><line x1="226.25" y1="490.92" x2="141.41" y2="461.82" style="fill:none;stroke:#fff5f5;stroke-miterlimit:10;stroke-width:1.5px"/><line x1="141.41" y1="461.82" x2="144.27" y2="534.02" style="fill:none;stroke:#fff5f5;stroke-miterlimit:10;stroke-width:1.5px"/><line x1="144.27" y1="534.02" x2="226.25" y2="490.92" style="fill:none;stroke:#fff5f5;stroke-miterlimit:10;stroke-width:1.5px"/><line x1="141.41" y1="461.82" x2="172.56" y2="412.7" style="fill:none;stroke:#fff5f5;stroke-miterlimit:10;stroke-width:1.5px"/><line x1="241.72" y1="226.38" x2="226.25" y2="133.8" style="fill:none;stroke:#fff5f5;stroke-miterlimit:10;stroke-width:1.5px"/><line x1="226.25" y1="133.8" x2="210.77" y2="226.38" style="fill:none;stroke:#fff5f5;stroke-miterlimit:10;stroke-width:1.5px"/><polyline points="249.91 333.98 226.25 347.5 202.58 333.98" style="fill:none;stroke:#fff5f5;stroke-miterlimit:10;stroke-width:1.5px"/><line x1="241.72" y1="226.38" x2="210.77" y2="226.38" style="fill:none;stroke:#fff5f5;stroke-miterlimit:10;stroke-width:1.5px"/><line x1="279.9" y1="412.92" x2="225.26" y2="450.96" style="fill:none;stroke:#fff5f5;stroke-miterlimit:10;stroke-width:1.5px"/><line x1="225.26" y1="450.96" x2="172.56" y2="412.7" style="fill:none;stroke:#fff5f5;stroke-miterlimit:10;stroke-width:1.5px"/></svg>