<svg  data-name="Layer 1" xmlns="http://www.w3.org/2000/svg" xmlns:xlink="http://www.w3.org/1999/xlink" viewBox="0 0 1920 1080"><defs><linearGradient id="linear-gradient" x1="728.99" y1="526.94" x2="1833.75" y2="526.94" gradientUnits="userSpaceOnUse"><stop offset="0" stop-color="#fc6363"/><stop offset="0.81" stop-color="#fa5f5f"/><stop offset="1" stop-color="#f95d5d"/><stop offset="1" stop-color="#ff1500"/></linearGradient><linearGradient id="linear-gradient-2" x1="1084.78" y1="888.08" x2="1454.5" y2="227.5" gradientUnits="userSpaceOnUse"><stop offset="0" stop-color="#fc6363"/><stop offset="0.29" stop-color="#fc655f"/><stop offset="0.58" stop-color="#fb6c53"/><stop offset="0.86" stop-color="#f97740"/><stop offset="1" stop-color="#f87e33"/></linearGradient><linearGradient id="linear-gradient-3" x1="1081.09" y1="545.27" x2="1495.09" y2="545.27" gradientTransform="translate(53.94 1207.58) rotate(-51.6)" gradientUnits="userSpaceOnUse"><stop offset="0" stop-color="#fc6363"/><stop offset="0.5" stop-color="#fa9540"/><stop offset="1" stop-color="#f8c420"/></linearGradient></defs><polygon points="962.11 1080 1920 864.21 1920 0 0 0 0 864.01 958.74 1080 962.11 1080" style="fill:#fc6464"/><path d="M1401,0H1161.73C914.18,54.67,729,275.39,729,539.38c0,234,145.54,434,351,514.51l603.64-136a550.46,550.46,0,0,0,150.09-378.52C1833.75,275.39,1648.57,54.67,1401,0Z" style="fill:url(#linear-gradient)"/><circle cx="1281.37" cy="536.83" r="423.5" style="fill:url(#linear-gradient-2)"/><circle cx="1281.37" cy="536.83" r="207" style="fill:url(#linear-gradient-3)"/></svg>